<svg width="13" height="13" viewBox="0 0 13 13" fill="none" xmlns="http://www.w3.org/2000/svg">
<path d="M10.5083 10.8333H5.2C5.1138 10.8333 5.03114 10.7991 4.97019 10.7381C4.90924 10.6772 4.875 10.5945 4.875 10.5083V5.2C4.875 5.1138 4.90924 5.03114 4.97019 4.97019C5.03114 4.90924 5.1138 4.875 5.2 4.875H10.5083C10.5945 4.875 10.6772 4.90924 10.7381 4.97019C10.7991 5.03114 10.8333 5.1138 10.8333 5.2V10.5083C10.8333 10.5945 10.7991 10.6772 10.7381 10.7381C10.6772 10.7991 10.5945 10.8333 10.5083 10.8333Z" stroke="#8E9194" stroke-width="1.25" stroke-linecap="round" stroke-linejoin="round"/>
<path d="M8.12508 4.87533V2.49199C8.12508 2.4058 8.09084 2.32313 8.02989 2.26218C7.96894 2.20123 7.88628 2.16699 7.80008 2.16699H2.49175C2.40555 2.16699 2.32289 2.20123 2.26194 2.26218C2.20099 2.32313 2.16675 2.4058 2.16675 2.49199V7.80032C2.16675 7.88652 2.20099 7.96919 2.26194 8.03014C2.32289 8.09108 2.40555 8.12533 2.49175 8.12533H4.87508" stroke="#8E9194" stroke-width="1.25" stroke-linecap="round" stroke-linejoin="round"/>
</svg>
