<svg width="25" height="25" viewBox="0 0 25 25" fill="none" xmlns="http://www.w3.org/2000/svg">
<g id="lets-icons:insta">
<g id="Group">
<path id="Vector" d="M3.125 11.4583C3.125 7.53021 3.125 5.56562 4.34583 4.34583C5.56667 3.12604 7.53021 3.125 11.4583 3.125H13.5417C17.4698 3.125 19.4344 3.125 20.6542 4.34583C21.874 5.56667 21.875 7.53021 21.875 11.4583V13.5417C21.875 17.4698 21.875 19.4344 20.6542 20.6542C19.4333 21.874 17.4698 21.875 13.5417 21.875H11.4583C7.53021 21.875 5.56562 21.875 4.34583 20.6542C3.12604 19.4333 3.125 17.4698 3.125 13.5417V11.4583Z" stroke="#252324" stroke-width="2.08333"/>
<path id="Vector_2" d="M17.1875 9.375C18.0504 9.375 18.75 8.67544 18.75 7.8125C18.75 6.94956 18.0504 6.25 17.1875 6.25C16.3246 6.25 15.625 6.94956 15.625 7.8125C15.625 8.67544 16.3246 9.375 17.1875 9.375Z" fill="#252324"/>
<path id="Vector_3" d="M12.5 15.625C14.2259 15.625 15.625 14.2259 15.625 12.5C15.625 10.7741 14.2259 9.375 12.5 9.375C10.7741 9.375 9.375 10.7741 9.375 12.5C9.375 14.2259 10.7741 15.625 12.5 15.625Z" stroke="#252324" stroke-width="2.08333"/>
</g>
</g>
</svg>
