<svg width="25" height="26" viewBox="0 0 25 26" fill="none" xmlns="http://www.w3.org/2000/svg">
<path d="M6.89583 11.2874C8.39583 14.2354 10.8125 16.6416 13.7604 18.152L16.0521 15.8604C16.3333 15.5791 16.75 15.4854 17.1146 15.6104C18.2812 15.9958 19.5417 16.2041 20.8333 16.2041C21.4062 16.2041 21.875 16.6729 21.875 17.2458V20.8812C21.875 21.4541 21.4062 21.9229 20.8333 21.9229C11.0521 21.9229 3.125 13.9958 3.125 4.21452C3.125 3.6416 3.59375 3.17285 4.16667 3.17285H7.8125C8.38542 3.17285 8.85417 3.6416 8.85417 4.21452C8.85417 5.5166 9.0625 6.7666 9.44792 7.93327C9.5625 8.29785 9.47917 8.7041 9.1875 8.99577L6.89583 11.2874Z" fill="#252324"/>
</svg>
