<svg width="25" height="25" viewBox="0 0 25 25" fill="none" xmlns="http://www.w3.org/2000/svg">
<g id="mdi:pinterest">
<path id="Vector" d="M9.41671 22.4382C10.4167 22.7402 11.4271 22.9173 12.5 22.9173C15.2627 22.9173 17.9122 21.8198 19.8657 19.8663C21.8192 17.9128 22.9167 15.2633 22.9167 12.5007C22.9167 11.1327 22.6473 9.77817 22.1238 8.51436C21.6003 7.25056 20.833 6.10223 19.8657 5.13496C18.8985 4.16768 17.7501 3.40039 16.4863 2.87691C15.2225 2.35342 13.868 2.08398 12.5 2.08398C11.1321 2.08398 9.77756 2.35342 8.51375 2.87691C7.24995 3.40039 6.10162 4.16768 5.13435 5.13496C3.18084 7.08846 2.08337 9.73798 2.08337 12.5007C2.08337 16.9277 4.86462 20.7298 8.79171 22.2298C8.69796 21.4173 8.60421 20.0736 8.79171 19.1465L9.98962 14.0007C9.98962 14.0007 9.68754 13.3965 9.68754 12.4382C9.68754 11.0007 10.5834 9.92773 11.6042 9.92773C12.5 9.92773 12.9167 10.584 12.9167 11.4277C12.9167 12.3236 12.323 13.6048 12.0209 14.834C11.8438 15.8548 12.5625 16.7507 13.6042 16.7507C15.4584 16.7507 16.8959 14.7715 16.8959 11.9798C16.8959 9.47982 15.1042 7.77148 12.5313 7.77148C9.59379 7.77148 7.86462 9.95898 7.86462 12.2611C7.86462 13.1569 8.15629 14.0632 8.63546 14.6569C8.72921 14.7194 8.72921 14.8027 8.69796 14.959L8.39587 16.0944C8.39587 16.2715 8.28129 16.334 8.10421 16.209C6.77087 15.6257 6.00004 13.7298 6.00004 12.1986C6.00004 8.9069 8.33337 5.91732 12.8334 5.91732C16.4167 5.91732 19.2084 8.49023 19.2084 11.9069C19.2084 15.4902 16.9896 18.3652 13.8125 18.3652C12.8021 18.3652 11.8125 17.8236 11.4584 17.1882L10.7605 19.6569C10.5209 20.5527 9.86462 21.7507 9.41671 22.4694V22.4382Z" fill="#252324"/>
</g>
</svg>
