<svg width="6" height="7" viewBox="0 0 6 7" fill="none" xmlns="http://www.w3.org/2000/svg">
<path d="M4.40963 1.49311L0.30267 5.60008C0.244064 5.65868 0.211141 5.73817 0.211141 5.82105C0.211141 5.90393 0.244064 5.98341 0.30267 6.04202C0.361275 6.10062 0.44076 6.13355 0.523641 6.13355C0.606521 6.13355 0.686006 6.10062 0.744611 6.04202L4.85158 1.93505L4.85113 5.15814C4.85113 5.24112 4.8841 5.32071 4.94278 5.37939C5.00146 5.43806 5.08104 5.47103 5.16403 5.47103C5.24701 5.47103 5.3266 5.43806 5.38528 5.37939C5.44396 5.32071 5.47692 5.24112 5.47692 5.15814L5.47692 1.18066C5.47698 1.13956 5.46892 1.09884 5.45321 1.06086C5.43751 1.02287 5.41446 0.988359 5.38539 0.959294C5.35633 0.930229 5.32182 0.907183 5.28383 0.891477C5.24584 0.875771 5.20513 0.867713 5.16403 0.867765L1.18655 0.867765C1.10357 0.867765 1.02398 0.900731 0.965303 0.95941C0.906624 1.01809 0.873658 1.09768 0.873658 1.18066C0.873658 1.26364 0.906624 1.34323 0.965303 1.40191C1.02398 1.46059 1.10357 1.49355 1.18655 1.49355L4.40963 1.49311Z" fill="#B6B6B6"/>
</svg>
