<svg width="20" height="21" viewBox="0 0 20 21" fill="none" xmlns="http://www.w3.org/2000/svg">
<g id="mingcute:telegram-fill">
<g id="Group">
<path id="Vector" fill-rule="evenodd" clip-rule="evenodd" d="M16.4809 4.19164C16.6868 4.10496 16.9122 4.07507 17.1336 4.10507C17.355 4.13507 17.5643 4.22386 17.7398 4.36221C17.9152 4.50056 18.0504 4.6834 18.1312 4.89171C18.212 5.10001 18.2355 5.32617 18.1992 5.54664L16.3092 17.0108C16.1259 18.1166 14.9125 18.7508 13.8984 18.2C13.05 17.7391 11.79 17.0291 10.6567 16.2883C10.09 15.9175 8.3542 14.73 8.56754 13.885C8.75087 13.1625 11.6675 10.4475 13.3342 8.8333C13.9884 8.19914 13.69 7.8333 12.9175 8.41664C10.9992 9.86497 7.9192 12.0675 6.90087 12.6875C6.00254 13.2341 5.5342 13.3275 4.9742 13.2341C3.95254 13.0641 3.00504 12.8008 2.2317 12.48C1.1867 12.0466 1.23754 10.61 2.23087 10.1916L16.4809 4.19164Z" fill="#252324"/>
</g>
</g>
</svg>
