<svg width="20" height="21" viewBox="0 0 20 21" fill="none" xmlns="http://www.w3.org/2000/svg">
<g id="ic:baseline-whatsapp">
<path id="Vector" d="M15.8749 4.59106C15.1108 3.81948 14.2008 3.2077 13.1978 2.79136C12.1949 2.37503 11.1192 2.16246 10.0333 2.16606C5.48325 2.16606 1.77492 5.87439 1.77492 10.4244C1.77492 11.8827 2.15825 13.2994 2.87492 14.5494L1.70825 18.8327L6.08325 17.6827C7.29158 18.3411 8.64992 18.6911 10.0333 18.6911C14.5833 18.6911 18.2916 14.9827 18.2916 10.4327C18.2916 8.22439 17.4333 6.14939 15.8749 4.59106ZM10.0333 17.2911C8.79992 17.2911 7.59159 16.9577 6.53325 16.3327L6.28325 16.1827L3.68325 16.8661L4.37492 14.3327L4.20825 14.0744C3.52287 12.9803 3.15902 11.7155 3.15825 10.4244C3.15825 6.64106 6.24158 3.55773 10.0249 3.55773C11.8583 3.55773 13.5833 4.27439 14.8749 5.57439C15.5146 6.21095 16.0215 6.96818 16.3663 7.80217C16.711 8.63616 16.8868 9.5303 16.8833 10.4327C16.8999 14.2161 13.8166 17.2911 10.0333 17.2911ZM13.7999 12.1577C13.5916 12.0577 12.5749 11.5577 12.3916 11.4827C12.1999 11.4161 12.0666 11.3827 11.9249 11.5827C11.7833 11.7911 11.3916 12.2577 11.2749 12.3911C11.1583 12.5327 11.0333 12.5494 10.8249 12.4411C10.6166 12.3411 9.94992 12.1161 9.16658 11.4161C8.54992 10.8661 8.14158 10.1911 8.01658 9.98273C7.89992 9.77439 7.99992 9.66606 8.10825 9.55773C8.19992 9.46606 8.31659 9.31606 8.41659 9.19939C8.51659 9.08273 8.55825 8.99106 8.62492 8.85773C8.69159 8.71606 8.65825 8.59939 8.60825 8.49939C8.55825 8.39939 8.14158 7.38273 7.97492 6.96606C7.80825 6.56606 7.63325 6.61606 7.50825 6.60773H7.10825C6.96658 6.60773 6.74992 6.65773 6.55825 6.86606C6.37492 7.07439 5.84159 7.57439 5.84159 8.59106C5.84159 9.60773 6.58325 10.5911 6.68325 10.7244C6.78325 10.8661 8.14158 12.9494 10.2083 13.8411C10.6999 14.0577 11.0833 14.1827 11.3833 14.2744C11.8749 14.4327 12.3249 14.4077 12.6833 14.3577C13.0833 14.2994 13.9083 13.8577 14.0749 13.3744C14.2499 12.8911 14.2499 12.4827 14.1916 12.3911C14.1333 12.2994 14.0083 12.2577 13.7999 12.1577Z" fill="#252324"/>
</g>
</svg>
